G04 #@! TF.FileFunction,Soldermask,Top*
%FSLAX46Y46*%
G04 Gerber Fmt 4.6, Leading zero omitted, Abs format (unit mm)*
G04 Created by KiCad (PCBNEW 4.0.6) date 2017 June 23, Friday 17:45:36*
%MOMM*%
%LPD*%
G01*
G04 APERTURE LIST*
%ADD10C,0.200000*%
%ADD11C,1.800000*%
%ADD12O,1.800000X1.800000*%
%ADD13R,1.000000X1.900000*%
%ADD14R,1.900000X1.000000*%
%ADD15R,2.350000X1.000000*%
%ADD16R,1.000000X2.350000*%
%ADD17C,4.464000*%
%ADD18R,2.100000X2.100000*%
%ADD19O,2.100000X2.100000*%
G04 APERTURE END LIST*
D10*
D11*
X87630000Y-44450000D03*
D12*
X90170000Y-44450000D03*
D11*
X96520000Y-44450000D03*
D12*
X99060000Y-44450000D03*
D11*
X105410000Y-44450000D03*
D12*
X107950000Y-44450000D03*
D11*
X114300000Y-44450000D03*
D12*
X116840000Y-44450000D03*
D11*
X123190000Y-44450000D03*
D12*
X125730000Y-44450000D03*
D11*
X132080000Y-44450000D03*
D12*
X134620000Y-44450000D03*
D11*
X140970000Y-44450000D03*
D12*
X143510000Y-44450000D03*
D11*
X149860000Y-44450000D03*
D12*
X152400000Y-44450000D03*
D11*
X158750000Y-44450000D03*
D12*
X156210000Y-44450000D03*
D11*
X156210000Y-48260000D03*
D12*
X156210000Y-50800000D03*
D11*
X156210000Y-58420000D03*
D12*
X156210000Y-60960000D03*
D11*
X156210000Y-68580000D03*
D12*
X156210000Y-71120000D03*
D11*
X156210000Y-78740000D03*
D12*
X156210000Y-81280000D03*
D11*
X156210000Y-88900000D03*
D12*
X156210000Y-91440000D03*
D11*
X156210000Y-99060000D03*
D12*
X156210000Y-101600000D03*
D11*
X156210000Y-107950000D03*
D12*
X156210000Y-110490000D03*
D11*
X156210000Y-118110000D03*
D12*
X156210000Y-120650000D03*
D11*
X156210000Y-128270000D03*
D12*
X156210000Y-125730000D03*
D11*
X151130000Y-128270000D03*
D12*
X148590000Y-128270000D03*
D11*
X142240000Y-128270000D03*
D12*
X139700000Y-128270000D03*
D11*
X133350000Y-128270000D03*
D12*
X130810000Y-128270000D03*
D11*
X124460000Y-128270000D03*
D12*
X121920000Y-128270000D03*
D11*
X115570000Y-128270000D03*
D12*
X113030000Y-128270000D03*
D11*
X106680000Y-128270000D03*
D12*
X104140000Y-128270000D03*
D11*
X97790000Y-128270000D03*
D12*
X95250000Y-128270000D03*
D11*
X88900000Y-128270000D03*
D12*
X86360000Y-128270000D03*
D11*
X80010000Y-128270000D03*
D12*
X77470000Y-128270000D03*
D11*
X72390000Y-130810000D03*
D12*
X72390000Y-128270000D03*
D11*
X72390000Y-120650000D03*
D12*
X72390000Y-118110000D03*
D11*
X72390000Y-110490000D03*
D12*
X72390000Y-107950000D03*
D11*
X72390000Y-100330000D03*
D12*
X72390000Y-97790000D03*
D11*
X72390000Y-90170000D03*
D12*
X72390000Y-87630000D03*
D11*
X72390000Y-80010000D03*
D12*
X72390000Y-77470000D03*
D11*
X72390000Y-69850000D03*
D12*
X72390000Y-67310000D03*
D11*
X72390000Y-59690000D03*
D12*
X72390000Y-57150000D03*
D11*
X72390000Y-49530000D03*
D12*
X72390000Y-52070000D03*
D13*
X105029000Y-92931000D03*
X103759000Y-92931000D03*
X102489000Y-92931000D03*
X101219000Y-92931000D03*
X99949000Y-92931000D03*
X98679000Y-92931000D03*
X97409000Y-92931000D03*
X97409000Y-98331000D03*
X98679000Y-98331000D03*
X99949000Y-98331000D03*
X101219000Y-98331000D03*
X102489000Y-98331000D03*
X103759000Y-98331000D03*
X105029000Y-98331000D03*
D14*
X104488000Y-76327000D03*
X104488000Y-77597000D03*
X104488000Y-78867000D03*
X104488000Y-80137000D03*
X104488000Y-81407000D03*
X104488000Y-82677000D03*
X104488000Y-83947000D03*
X109888000Y-83947000D03*
X109888000Y-82677000D03*
X109888000Y-81407000D03*
X109888000Y-80137000D03*
X109888000Y-78867000D03*
X109888000Y-77597000D03*
X109888000Y-76327000D03*
D13*
X116205000Y-107155000D03*
X114935000Y-107155000D03*
X113665000Y-107155000D03*
X112395000Y-107155000D03*
X111125000Y-107155000D03*
X109855000Y-107155000D03*
X108585000Y-107155000D03*
X108585000Y-112555000D03*
X109855000Y-112555000D03*
X111125000Y-112555000D03*
X112395000Y-112555000D03*
X113665000Y-112555000D03*
X114935000Y-112555000D03*
X116205000Y-112555000D03*
D14*
X98966000Y-62738000D03*
X98966000Y-61468000D03*
X98966000Y-60198000D03*
X98966000Y-58928000D03*
X98966000Y-57658000D03*
X98966000Y-56388000D03*
X98966000Y-55118000D03*
X93566000Y-55118000D03*
X93566000Y-56388000D03*
X93566000Y-57658000D03*
X93566000Y-58928000D03*
X93566000Y-60198000D03*
X93566000Y-61468000D03*
X93566000Y-62738000D03*
X128110000Y-90805000D03*
X128110000Y-92075000D03*
X128110000Y-93345000D03*
X128110000Y-94615000D03*
X128110000Y-95885000D03*
X128110000Y-97155000D03*
X128110000Y-98425000D03*
X133510000Y-98425000D03*
X133510000Y-97155000D03*
X133510000Y-95885000D03*
X133510000Y-94615000D03*
X133510000Y-93345000D03*
X133510000Y-92075000D03*
X133510000Y-90805000D03*
D15*
X90679000Y-86868000D03*
X90679000Y-85598000D03*
X90679000Y-84328000D03*
X90679000Y-83058000D03*
X90679000Y-81788000D03*
X90679000Y-80518000D03*
X90679000Y-79248000D03*
X90679000Y-77978000D03*
X90679000Y-76708000D03*
X90679000Y-75438000D03*
X81279000Y-75438000D03*
X81279000Y-76708000D03*
X81279000Y-77978000D03*
X81279000Y-79248000D03*
X81279000Y-80518000D03*
X81279000Y-81788000D03*
X81279000Y-83058000D03*
X81279000Y-84328000D03*
X81279000Y-85598000D03*
X81279000Y-86868000D03*
X125350000Y-66040000D03*
X125350000Y-64770000D03*
X125350000Y-63500000D03*
X125350000Y-62230000D03*
X125350000Y-60960000D03*
X125350000Y-59690000D03*
X125350000Y-58420000D03*
X125350000Y-57150000D03*
X125350000Y-55880000D03*
X125350000Y-54610000D03*
X115950000Y-54610000D03*
X115950000Y-55880000D03*
X115950000Y-57150000D03*
X115950000Y-58420000D03*
X115950000Y-59690000D03*
X115950000Y-60960000D03*
X115950000Y-62230000D03*
X115950000Y-63500000D03*
X115950000Y-64770000D03*
X115950000Y-66040000D03*
D16*
X133985000Y-81535000D03*
X135255000Y-81535000D03*
X136525000Y-81535000D03*
X137795000Y-81535000D03*
X139065000Y-81535000D03*
X140335000Y-81535000D03*
X141605000Y-81535000D03*
X142875000Y-81535000D03*
X144145000Y-81535000D03*
X145415000Y-81535000D03*
X145415000Y-72135000D03*
X144145000Y-72135000D03*
X142875000Y-72135000D03*
X141605000Y-72135000D03*
X140335000Y-72135000D03*
X139065000Y-72135000D03*
X137795000Y-72135000D03*
X136525000Y-72135000D03*
X135255000Y-72135000D03*
X133985000Y-72135000D03*
D15*
X90552000Y-118745000D03*
X90552000Y-117475000D03*
X90552000Y-116205000D03*
X90552000Y-114935000D03*
X90552000Y-113665000D03*
X90552000Y-112395000D03*
X90552000Y-111125000D03*
X90552000Y-109855000D03*
X90552000Y-108585000D03*
X90552000Y-107315000D03*
X81152000Y-107315000D03*
X81152000Y-108585000D03*
X81152000Y-109855000D03*
X81152000Y-111125000D03*
X81152000Y-112395000D03*
X81152000Y-113665000D03*
X81152000Y-114935000D03*
X81152000Y-116205000D03*
X81152000Y-117475000D03*
X81152000Y-118745000D03*
X133603000Y-106045000D03*
X133603000Y-107315000D03*
X133603000Y-108585000D03*
X133603000Y-109855000D03*
X133603000Y-111125000D03*
X133603000Y-112395000D03*
X133603000Y-113665000D03*
X133603000Y-114935000D03*
X133603000Y-116205000D03*
X133603000Y-117475000D03*
X143003000Y-117475000D03*
X143003000Y-116205000D03*
X143003000Y-114935000D03*
X143003000Y-113665000D03*
X143003000Y-112395000D03*
X143003000Y-111125000D03*
X143003000Y-109855000D03*
X143003000Y-108585000D03*
X143003000Y-107315000D03*
X143003000Y-106045000D03*
D17*
X81280000Y-58420000D03*
X143510000Y-54610000D03*
X99060000Y-120650000D03*
D18*
X68580000Y-120650000D03*
D19*
X68580000Y-118110000D03*
D18*
X87630000Y-40640000D03*
D19*
X90170000Y-40640000D03*
D18*
X96520000Y-40640000D03*
D19*
X99060000Y-40640000D03*
D18*
X105410000Y-40640000D03*
D19*
X107950000Y-40640000D03*
D18*
X114300000Y-40640000D03*
D19*
X116840000Y-40640000D03*
D18*
X123190000Y-40640000D03*
D19*
X125730000Y-40640000D03*
D18*
X132080000Y-40640000D03*
D19*
X134620000Y-40640000D03*
D18*
X140970000Y-40640000D03*
D19*
X143510000Y-40640000D03*
D18*
X149860000Y-40640000D03*
D19*
X152400000Y-40640000D03*
D18*
X158750000Y-40640000D03*
D19*
X161290000Y-40640000D03*
D18*
X160020000Y-48260000D03*
D19*
X160020000Y-50800000D03*
D18*
X160020000Y-58420000D03*
D19*
X160020000Y-60960000D03*
D18*
X160020000Y-68580000D03*
D19*
X160020000Y-71120000D03*
D18*
X160020000Y-78740000D03*
D19*
X160020000Y-81280000D03*
D18*
X160020000Y-88900000D03*
D19*
X160020000Y-91440000D03*
D18*
X160020000Y-99060000D03*
D19*
X160020000Y-101600000D03*
D18*
X160020000Y-107950000D03*
D19*
X160020000Y-110490000D03*
D18*
X160020000Y-118110000D03*
D19*
X160020000Y-120650000D03*
D18*
X160020000Y-128270000D03*
D19*
X160020000Y-130810000D03*
D18*
X151130000Y-132080000D03*
D19*
X148590000Y-132080000D03*
D18*
X142240000Y-132080000D03*
D19*
X139700000Y-132080000D03*
D18*
X133350000Y-132080000D03*
D19*
X130810000Y-132080000D03*
D18*
X124460000Y-132080000D03*
D19*
X121920000Y-132080000D03*
D18*
X115570000Y-132080000D03*
D19*
X113030000Y-132080000D03*
D18*
X106680000Y-132080000D03*
D19*
X104140000Y-132080000D03*
D18*
X97790000Y-132080000D03*
D19*
X95250000Y-132080000D03*
D18*
X88900000Y-132080000D03*
D19*
X86360000Y-132080000D03*
D18*
X80010000Y-132080000D03*
D19*
X77470000Y-132080000D03*
D18*
X68580000Y-130810000D03*
D19*
X68580000Y-128270000D03*
D18*
X68580000Y-110490000D03*
D19*
X68580000Y-107950000D03*
D18*
X68580000Y-100330000D03*
D19*
X68580000Y-97790000D03*
D18*
X68580000Y-90170000D03*
D19*
X68580000Y-87630000D03*
D18*
X68580000Y-80010000D03*
D19*
X68580000Y-77470000D03*
D18*
X68580000Y-69850000D03*
D19*
X68580000Y-67310000D03*
D18*
X68580000Y-59690000D03*
D19*
X68580000Y-57150000D03*
D18*
X68580000Y-49530000D03*
D19*
X68580000Y-46990000D03*
D18*
X74930000Y-43180000D03*
D19*
X74930000Y-40640000D03*
X77470000Y-43180000D03*
X77470000Y-40640000D03*
X80010000Y-43180000D03*
X80010000Y-40640000D03*
M02*
