M48
;DRILL file {KiCad 4.0.6} date 2017 June 23, Friday 17:46:10
;FORMAT={-:-/ absolute / metric / decimal}
FMAT,2
METRIC,TZ
T1C0.400
T2C0.700
T3C1.000
T4C3.200
%
G90
G05
M71
T1
X70.612Y-101.727
X72.39Y-45.339
X72.39Y-116.459
X74.168Y-52.07
X74.168Y-67.31
X74.168Y-97.79
X74.295Y-57.15
X74.295Y-108.585
X74.803Y-77.47
X75.501Y-105.664
X75.501Y-114.935
X76.708Y-105.664
X76.708Y-112.395
X77.47Y-38.354
X77.597Y-95.504
X77.851Y-105.664
X77.851Y-109.855
X77.851Y-111.125
X79.121Y-113.665
X80.772Y-73.406
X82.296Y-48.768
X83.058Y-86.868
X83.058Y-101.092
X83.058Y-118.745
X83.185Y-65.405
X83.185Y-76.708
X83.185Y-79.248
X83.185Y-81.788
X83.312Y-85.598
X84.201Y-96.647
X84.328Y-66.548
X84.455Y-40.132
X85.344Y-97.79
X85.471Y-67.691
X85.852Y-43.18
X85.852Y-52.705
X86.106Y-117.475
X86.487Y-97.917
X86.614Y-67.691
X87.503Y-116.205
X87.63Y-92.964
X88.011Y-108.585
X88.519Y-107.315
X88.646Y-113.665
X88.646Y-116.205
X88.646Y-120.523
X88.773Y-111.125
X89.281Y-56.388
X90.043Y-88.646
X90.551Y-56.388
X91.313Y-92.837
X91.948Y-62.738
X92.583Y-76.835
X92.583Y-85.598
X92.583Y-89.535
X92.583Y-117.475
X93.726Y-79.248
X93.726Y-83.058
X93.726Y-90.043
X93.726Y-114.935
X94.869Y-77.978
X94.869Y-82.677
X94.869Y-90.551
X94.869Y-112.395
X95.123Y-56.388
X95.123Y-68.834
X96.012Y-83.947
X96.012Y-91.313
X96.012Y-109.855
X96.266Y-55.118
X96.266Y-68.834
X97.409Y-61.468
X97.409Y-62.738
X97.409Y-96.774
X97.409Y-99.949
X97.409Y-112.522
X98.679Y-96.901
X98.679Y-99.949
X98.679Y-111.379
X99.949Y-99.949
X99.949Y-102.235
X101.219Y-99.949
X101.219Y-103.378
X101.473Y-76.327
X101.473Y-85.471
X102.108Y-40.64
X102.489Y-99.949
X102.489Y-104.521
X102.743Y-77.597
X102.743Y-83.947
X103.759Y-99.949
X103.759Y-105.664
X104.775Y-48.895
X105.029Y-99.949
X105.029Y-102.743
X105.029Y-116.967
X105.41Y-54.61
X105.664Y-50.038
X105.664Y-51.181
X105.664Y-52.324
X105.664Y-85.471
X105.664Y-90.17
X106.299Y-100.711
X106.299Y-111.379
X106.553Y-53.467
X106.553Y-62.23
X106.553Y-68.072
X106.934Y-89.027
X107.188Y-112.522
X107.696Y-59.69
X107.696Y-66.929
X107.95Y-46.228
X108.204Y-82.677
X108.204Y-83.947
X108.204Y-87.884
X108.839Y-57.15
X108.839Y-65.786
X109.855Y-108.712
X109.855Y-118.11
X109.982Y-54.61
X109.982Y-64.643
X111.125Y-108.712
X111.125Y-114.3
X111.506Y-76.327
X111.506Y-90.17
X112.395Y-108.712
X112.395Y-114.3
X113.665Y-105.41
X113.665Y-114.3
X114.046Y-66.04
X114.935Y-114.3
X114.935Y-115.443
X116.205Y-114.3
X116.205Y-116.967
X116.205Y-118.11
X116.586Y-98.298
X116.586Y-99.441
X116.84Y-46.228
X117.602Y-64.77
X117.602Y-107.188
X117.729Y-55.88
X117.729Y-91.313
X117.983Y-54.61
X118.872Y-90.17
X119.507Y-66.04
X120.015Y-89.027
X120.523Y-63.627
X121.158Y-87.884
X122.428Y-98.298
X122.428Y-99.441
X122.936Y-108.585
X123.444Y-57.15
X123.444Y-59.69
X123.444Y-62.23
X123.444Y-64.77
X123.444Y-66.04
X123.444Y-67.437
X125.603Y-105.918
X126.238Y-93.345
X126.238Y-94.615
X126.238Y-95.885
X126.238Y-97.155
X127.254Y-63.5
X128.905Y-40.64
X128.905Y-124.46
X128.905Y-125.73
X130.429Y-105.918
X130.81Y-99.949
X130.81Y-130.048
X131.572Y-107.315
X131.572Y-109.855
X131.572Y-112.395
X131.572Y-114.935
X131.572Y-116.205
X131.953Y-98.425
X134.62Y-49.022
X135.255Y-83.566
X135.509Y-90.805
X135.509Y-92.075
X135.509Y-93.345
X135.509Y-94.615
X135.509Y-95.885
X137.795Y-69.977
X137.795Y-79.502
X139.7Y-126.365
X140.335Y-69.977
X140.335Y-79.375
X141.097Y-123.19
X142.875Y-69.977
X142.875Y-79.502
X143.51Y-47.752
X143.764Y-92.075
X143.764Y-97.155
X144.907Y-60.579
X145.034Y-90.805
X145.034Y-97.155
X145.034Y-112.395
X145.034Y-114.935
X145.034Y-117.475
X145.415Y-61.849
X145.415Y-69.977
X146.304Y-87.503
X146.304Y-90.805
X146.304Y-97.155
X146.939Y-63.119
X148.59Y-126.365
X148.844Y-104.775
X150.114Y-106.045
X151.384Y-107.315
X152.4Y-46.482
X152.654Y-83.82
X154.051Y-83.82
X154.178Y-71.12
X154.178Y-120.65
X156.21Y-123.825
X157.988Y-81.28
X157.988Y-91.44
T2
X72.39Y-49.53
X72.39Y-52.07
X72.39Y-57.15
X72.39Y-59.69
X72.39Y-67.31
X72.39Y-69.85
X72.39Y-77.47
X72.39Y-80.01
X72.39Y-87.63
X72.39Y-90.17
X72.39Y-97.79
X72.39Y-100.33
X72.39Y-107.95
X72.39Y-110.49
X72.39Y-118.11
X72.39Y-120.65
X72.39Y-128.27
X72.39Y-130.81
X77.47Y-128.27
X80.01Y-128.27
X86.36Y-128.27
X87.63Y-44.45
X88.9Y-128.27
X90.17Y-44.45
X95.25Y-128.27
X96.52Y-44.45
X97.79Y-128.27
X99.06Y-44.45
X104.14Y-128.27
X105.41Y-44.45
X106.68Y-128.27
X107.95Y-44.45
X113.03Y-128.27
X114.3Y-44.45
X115.57Y-128.27
X116.84Y-44.45
X121.92Y-128.27
X123.19Y-44.45
X124.46Y-128.27
X125.73Y-44.45
X130.81Y-128.27
X132.08Y-44.45
X133.35Y-128.27
X134.62Y-44.45
X139.7Y-128.27
X140.97Y-44.45
X142.24Y-128.27
X143.51Y-44.45
X148.59Y-128.27
X149.86Y-44.45
X151.13Y-128.27
X152.4Y-44.45
X156.21Y-44.45
X156.21Y-48.26
X156.21Y-50.8
X156.21Y-58.42
X156.21Y-60.96
X156.21Y-68.58
X156.21Y-71.12
X156.21Y-78.74
X156.21Y-81.28
X156.21Y-88.9
X156.21Y-91.44
X156.21Y-99.06
X156.21Y-101.6
X156.21Y-107.95
X156.21Y-110.49
X156.21Y-118.11
X156.21Y-120.65
X156.21Y-125.73
X156.21Y-128.27
X158.75Y-44.45
T3
X68.58Y-46.99
X68.58Y-49.53
X68.58Y-57.15
X68.58Y-59.69
X68.58Y-67.31
X68.58Y-69.85
X68.58Y-77.47
X68.58Y-80.01
X68.58Y-87.63
X68.58Y-90.17
X68.58Y-97.79
X68.58Y-100.33
X68.58Y-107.95
X68.58Y-110.49
X68.58Y-118.11
X68.58Y-120.65
X68.58Y-128.27
X68.58Y-130.81
X74.93Y-40.64
X74.93Y-43.18
X77.47Y-40.64
X77.47Y-43.18
X77.47Y-132.08
X80.01Y-40.64
X80.01Y-43.18
X80.01Y-132.08
X86.36Y-132.08
X87.63Y-40.64
X88.9Y-132.08
X90.17Y-40.64
X95.25Y-132.08
X96.52Y-40.64
X97.79Y-132.08
X99.06Y-40.64
X104.14Y-132.08
X105.41Y-40.64
X106.68Y-132.08
X107.95Y-40.64
X113.03Y-132.08
X114.3Y-40.64
X115.57Y-132.08
X116.84Y-40.64
X121.92Y-132.08
X123.19Y-40.64
X124.46Y-132.08
X125.73Y-40.64
X130.81Y-132.08
X132.08Y-40.64
X133.35Y-132.08
X134.62Y-40.64
X139.7Y-132.08
X140.97Y-40.64
X142.24Y-132.08
X143.51Y-40.64
X148.59Y-132.08
X149.86Y-40.64
X151.13Y-132.08
X152.4Y-40.64
X158.75Y-40.64
X160.02Y-48.26
X160.02Y-50.8
X160.02Y-58.42
X160.02Y-60.96
X160.02Y-68.58
X160.02Y-71.12
X160.02Y-78.74
X160.02Y-81.28
X160.02Y-88.9
X160.02Y-91.44
X160.02Y-99.06
X160.02Y-101.6
X160.02Y-107.95
X160.02Y-110.49
X160.02Y-118.11
X160.02Y-120.65
X160.02Y-128.27
X160.02Y-130.81
X161.29Y-40.64
T4
X81.28Y-58.42
X99.06Y-120.65
X143.51Y-54.61
T0
M30
