G04 #@! TF.FileFunction,Soldermask,Bot*
%FSLAX46Y46*%
G04 Gerber Fmt 4.6, Leading zero omitted, Abs format (unit mm)*
G04 Created by KiCad (PCBNEW 4.0.6) date 2017 June 23, Friday 17:45:36*
%MOMM*%
%LPD*%
G01*
G04 APERTURE LIST*
%ADD10C,0.200000*%
%ADD11C,1.800000*%
%ADD12O,1.800000X1.800000*%
%ADD13C,4.464000*%
%ADD14R,2.100000X2.100000*%
%ADD15O,2.100000X2.100000*%
G04 APERTURE END LIST*
D10*
D11*
X87630000Y-44450000D03*
D12*
X90170000Y-44450000D03*
D11*
X96520000Y-44450000D03*
D12*
X99060000Y-44450000D03*
D11*
X105410000Y-44450000D03*
D12*
X107950000Y-44450000D03*
D11*
X114300000Y-44450000D03*
D12*
X116840000Y-44450000D03*
D11*
X123190000Y-44450000D03*
D12*
X125730000Y-44450000D03*
D11*
X132080000Y-44450000D03*
D12*
X134620000Y-44450000D03*
D11*
X140970000Y-44450000D03*
D12*
X143510000Y-44450000D03*
D11*
X149860000Y-44450000D03*
D12*
X152400000Y-44450000D03*
D11*
X158750000Y-44450000D03*
D12*
X156210000Y-44450000D03*
D11*
X156210000Y-48260000D03*
D12*
X156210000Y-50800000D03*
D11*
X156210000Y-58420000D03*
D12*
X156210000Y-60960000D03*
D11*
X156210000Y-68580000D03*
D12*
X156210000Y-71120000D03*
D11*
X156210000Y-78740000D03*
D12*
X156210000Y-81280000D03*
D11*
X156210000Y-88900000D03*
D12*
X156210000Y-91440000D03*
D11*
X156210000Y-99060000D03*
D12*
X156210000Y-101600000D03*
D11*
X156210000Y-107950000D03*
D12*
X156210000Y-110490000D03*
D11*
X156210000Y-118110000D03*
D12*
X156210000Y-120650000D03*
D11*
X156210000Y-128270000D03*
D12*
X156210000Y-125730000D03*
D11*
X151130000Y-128270000D03*
D12*
X148590000Y-128270000D03*
D11*
X142240000Y-128270000D03*
D12*
X139700000Y-128270000D03*
D11*
X133350000Y-128270000D03*
D12*
X130810000Y-128270000D03*
D11*
X124460000Y-128270000D03*
D12*
X121920000Y-128270000D03*
D11*
X115570000Y-128270000D03*
D12*
X113030000Y-128270000D03*
D11*
X106680000Y-128270000D03*
D12*
X104140000Y-128270000D03*
D11*
X97790000Y-128270000D03*
D12*
X95250000Y-128270000D03*
D11*
X88900000Y-128270000D03*
D12*
X86360000Y-128270000D03*
D11*
X80010000Y-128270000D03*
D12*
X77470000Y-128270000D03*
D11*
X72390000Y-130810000D03*
D12*
X72390000Y-128270000D03*
D11*
X72390000Y-120650000D03*
D12*
X72390000Y-118110000D03*
D11*
X72390000Y-110490000D03*
D12*
X72390000Y-107950000D03*
D11*
X72390000Y-100330000D03*
D12*
X72390000Y-97790000D03*
D11*
X72390000Y-90170000D03*
D12*
X72390000Y-87630000D03*
D11*
X72390000Y-80010000D03*
D12*
X72390000Y-77470000D03*
D11*
X72390000Y-69850000D03*
D12*
X72390000Y-67310000D03*
D11*
X72390000Y-59690000D03*
D12*
X72390000Y-57150000D03*
D11*
X72390000Y-49530000D03*
D12*
X72390000Y-52070000D03*
D13*
X81280000Y-58420000D03*
X143510000Y-54610000D03*
X99060000Y-120650000D03*
D14*
X68580000Y-120650000D03*
D15*
X68580000Y-118110000D03*
D14*
X87630000Y-40640000D03*
D15*
X90170000Y-40640000D03*
D14*
X96520000Y-40640000D03*
D15*
X99060000Y-40640000D03*
D14*
X105410000Y-40640000D03*
D15*
X107950000Y-40640000D03*
D14*
X114300000Y-40640000D03*
D15*
X116840000Y-40640000D03*
D14*
X123190000Y-40640000D03*
D15*
X125730000Y-40640000D03*
D14*
X132080000Y-40640000D03*
D15*
X134620000Y-40640000D03*
D14*
X140970000Y-40640000D03*
D15*
X143510000Y-40640000D03*
D14*
X149860000Y-40640000D03*
D15*
X152400000Y-40640000D03*
D14*
X158750000Y-40640000D03*
D15*
X161290000Y-40640000D03*
D14*
X160020000Y-48260000D03*
D15*
X160020000Y-50800000D03*
D14*
X160020000Y-58420000D03*
D15*
X160020000Y-60960000D03*
D14*
X160020000Y-68580000D03*
D15*
X160020000Y-71120000D03*
D14*
X160020000Y-78740000D03*
D15*
X160020000Y-81280000D03*
D14*
X160020000Y-88900000D03*
D15*
X160020000Y-91440000D03*
D14*
X160020000Y-99060000D03*
D15*
X160020000Y-101600000D03*
D14*
X160020000Y-107950000D03*
D15*
X160020000Y-110490000D03*
D14*
X160020000Y-118110000D03*
D15*
X160020000Y-120650000D03*
D14*
X160020000Y-128270000D03*
D15*
X160020000Y-130810000D03*
D14*
X151130000Y-132080000D03*
D15*
X148590000Y-132080000D03*
D14*
X142240000Y-132080000D03*
D15*
X139700000Y-132080000D03*
D14*
X133350000Y-132080000D03*
D15*
X130810000Y-132080000D03*
D14*
X124460000Y-132080000D03*
D15*
X121920000Y-132080000D03*
D14*
X115570000Y-132080000D03*
D15*
X113030000Y-132080000D03*
D14*
X106680000Y-132080000D03*
D15*
X104140000Y-132080000D03*
D14*
X97790000Y-132080000D03*
D15*
X95250000Y-132080000D03*
D14*
X88900000Y-132080000D03*
D15*
X86360000Y-132080000D03*
D14*
X80010000Y-132080000D03*
D15*
X77470000Y-132080000D03*
D14*
X68580000Y-130810000D03*
D15*
X68580000Y-128270000D03*
D14*
X68580000Y-110490000D03*
D15*
X68580000Y-107950000D03*
D14*
X68580000Y-100330000D03*
D15*
X68580000Y-97790000D03*
D14*
X68580000Y-90170000D03*
D15*
X68580000Y-87630000D03*
D14*
X68580000Y-80010000D03*
D15*
X68580000Y-77470000D03*
D14*
X68580000Y-69850000D03*
D15*
X68580000Y-67310000D03*
D14*
X68580000Y-59690000D03*
D15*
X68580000Y-57150000D03*
D14*
X68580000Y-49530000D03*
D15*
X68580000Y-46990000D03*
D14*
X74930000Y-43180000D03*
D15*
X74930000Y-40640000D03*
X77470000Y-43180000D03*
X77470000Y-40640000D03*
X80010000Y-43180000D03*
X80010000Y-40640000D03*
M02*
