G04 #@! TF.FileFunction,Copper,L2,Bot,Signal*
%FSLAX46Y46*%
G04 Gerber Fmt 4.6, Leading zero omitted, Abs format (unit mm)*
G04 Created by KiCad (PCBNEW 4.0.6) date 2017 June 23, Friday 17:45:36*
%MOMM*%
%LPD*%
G01*
G04 APERTURE LIST*
%ADD10C,0.200000*%
%ADD11C,1.400000*%
%ADD12O,1.400000X1.400000*%
%ADD13C,4.064000*%
%ADD14R,1.700000X1.700000*%
%ADD15O,1.700000X1.700000*%
%ADD16C,0.600000*%
%ADD17C,0.750000*%
%ADD18C,0.600000*%
G04 APERTURE END LIST*
D10*
D11*
X87630000Y-44450000D03*
D12*
X90170000Y-44450000D03*
D11*
X96520000Y-44450000D03*
D12*
X99060000Y-44450000D03*
D11*
X105410000Y-44450000D03*
D12*
X107950000Y-44450000D03*
D11*
X114300000Y-44450000D03*
D12*
X116840000Y-44450000D03*
D11*
X123190000Y-44450000D03*
D12*
X125730000Y-44450000D03*
D11*
X132080000Y-44450000D03*
D12*
X134620000Y-44450000D03*
D11*
X140970000Y-44450000D03*
D12*
X143510000Y-44450000D03*
D11*
X149860000Y-44450000D03*
D12*
X152400000Y-44450000D03*
D11*
X158750000Y-44450000D03*
D12*
X156210000Y-44450000D03*
D11*
X156210000Y-48260000D03*
D12*
X156210000Y-50800000D03*
D11*
X156210000Y-58420000D03*
D12*
X156210000Y-60960000D03*
D11*
X156210000Y-68580000D03*
D12*
X156210000Y-71120000D03*
D11*
X156210000Y-78740000D03*
D12*
X156210000Y-81280000D03*
D11*
X156210000Y-88900000D03*
D12*
X156210000Y-91440000D03*
D11*
X156210000Y-99060000D03*
D12*
X156210000Y-101600000D03*
D11*
X156210000Y-107950000D03*
D12*
X156210000Y-110490000D03*
D11*
X156210000Y-118110000D03*
D12*
X156210000Y-120650000D03*
D11*
X156210000Y-128270000D03*
D12*
X156210000Y-125730000D03*
D11*
X151130000Y-128270000D03*
D12*
X148590000Y-128270000D03*
D11*
X142240000Y-128270000D03*
D12*
X139700000Y-128270000D03*
D11*
X133350000Y-128270000D03*
D12*
X130810000Y-128270000D03*
D11*
X124460000Y-128270000D03*
D12*
X121920000Y-128270000D03*
D11*
X115570000Y-128270000D03*
D12*
X113030000Y-128270000D03*
D11*
X106680000Y-128270000D03*
D12*
X104140000Y-128270000D03*
D11*
X97790000Y-128270000D03*
D12*
X95250000Y-128270000D03*
D11*
X88900000Y-128270000D03*
D12*
X86360000Y-128270000D03*
D11*
X80010000Y-128270000D03*
D12*
X77470000Y-128270000D03*
D11*
X72390000Y-130810000D03*
D12*
X72390000Y-128270000D03*
D11*
X72390000Y-120650000D03*
D12*
X72390000Y-118110000D03*
D11*
X72390000Y-110490000D03*
D12*
X72390000Y-107950000D03*
D11*
X72390000Y-100330000D03*
D12*
X72390000Y-97790000D03*
D11*
X72390000Y-90170000D03*
D12*
X72390000Y-87630000D03*
D11*
X72390000Y-80010000D03*
D12*
X72390000Y-77470000D03*
D11*
X72390000Y-69850000D03*
D12*
X72390000Y-67310000D03*
D11*
X72390000Y-59690000D03*
D12*
X72390000Y-57150000D03*
D11*
X72390000Y-49530000D03*
D12*
X72390000Y-52070000D03*
D13*
X81280000Y-58420000D03*
X143510000Y-54610000D03*
X99060000Y-120650000D03*
D14*
X68580000Y-120650000D03*
D15*
X68580000Y-118110000D03*
D14*
X87630000Y-40640000D03*
D15*
X90170000Y-40640000D03*
D14*
X96520000Y-40640000D03*
D15*
X99060000Y-40640000D03*
D14*
X105410000Y-40640000D03*
D15*
X107950000Y-40640000D03*
D14*
X114300000Y-40640000D03*
D15*
X116840000Y-40640000D03*
D14*
X123190000Y-40640000D03*
D15*
X125730000Y-40640000D03*
D14*
X132080000Y-40640000D03*
D15*
X134620000Y-40640000D03*
D14*
X140970000Y-40640000D03*
D15*
X143510000Y-40640000D03*
D14*
X149860000Y-40640000D03*
D15*
X152400000Y-40640000D03*
D14*
X158750000Y-40640000D03*
D15*
X161290000Y-40640000D03*
D14*
X160020000Y-48260000D03*
D15*
X160020000Y-50800000D03*
D14*
X160020000Y-58420000D03*
D15*
X160020000Y-60960000D03*
D14*
X160020000Y-68580000D03*
D15*
X160020000Y-71120000D03*
D14*
X160020000Y-78740000D03*
D15*
X160020000Y-81280000D03*
D14*
X160020000Y-88900000D03*
D15*
X160020000Y-91440000D03*
D14*
X160020000Y-99060000D03*
D15*
X160020000Y-101600000D03*
D14*
X160020000Y-107950000D03*
D15*
X160020000Y-110490000D03*
D14*
X160020000Y-118110000D03*
D15*
X160020000Y-120650000D03*
D14*
X160020000Y-128270000D03*
D15*
X160020000Y-130810000D03*
D14*
X151130000Y-132080000D03*
D15*
X148590000Y-132080000D03*
D14*
X142240000Y-132080000D03*
D15*
X139700000Y-132080000D03*
D14*
X133350000Y-132080000D03*
D15*
X130810000Y-132080000D03*
D14*
X124460000Y-132080000D03*
D15*
X121920000Y-132080000D03*
D14*
X115570000Y-132080000D03*
D15*
X113030000Y-132080000D03*
D14*
X106680000Y-132080000D03*
D15*
X104140000Y-132080000D03*
D14*
X97790000Y-132080000D03*
D15*
X95250000Y-132080000D03*
D14*
X88900000Y-132080000D03*
D15*
X86360000Y-132080000D03*
D14*
X80010000Y-132080000D03*
D15*
X77470000Y-132080000D03*
D14*
X68580000Y-130810000D03*
D15*
X68580000Y-128270000D03*
D14*
X68580000Y-110490000D03*
D15*
X68580000Y-107950000D03*
D14*
X68580000Y-100330000D03*
D15*
X68580000Y-97790000D03*
D14*
X68580000Y-90170000D03*
D15*
X68580000Y-87630000D03*
D14*
X68580000Y-80010000D03*
D15*
X68580000Y-77470000D03*
D14*
X68580000Y-69850000D03*
D15*
X68580000Y-67310000D03*
D14*
X68580000Y-59690000D03*
D15*
X68580000Y-57150000D03*
D14*
X68580000Y-49530000D03*
D15*
X68580000Y-46990000D03*
D14*
X74930000Y-43180000D03*
D15*
X74930000Y-40640000D03*
X77470000Y-43180000D03*
X77470000Y-40640000D03*
X80010000Y-43180000D03*
X80010000Y-40640000D03*
D16*
X91948000Y-62738000D03*
X116205000Y-114300000D03*
X116205000Y-116967000D03*
X105029000Y-116967000D03*
X83058000Y-101092000D03*
X105029000Y-102743000D03*
X150114000Y-106045000D03*
X145034000Y-97155000D03*
X145034000Y-90805000D03*
X135509000Y-90805000D03*
X105029000Y-99949000D03*
X118872000Y-90170000D03*
X111506000Y-90170000D03*
X83058000Y-118745000D03*
X83058000Y-86868000D03*
X97409000Y-62738000D03*
X117729000Y-55880000D03*
X119507000Y-66040000D03*
X123444000Y-67437000D03*
X114046000Y-66040000D03*
X111506000Y-76327000D03*
X82296000Y-48768000D03*
X84455000Y-40132000D03*
X91313000Y-92837000D03*
X96012000Y-83947000D03*
X88519000Y-107315000D03*
X87630000Y-92964000D03*
X102743000Y-77597000D03*
X102743000Y-83947000D03*
X80772000Y-73406000D03*
X128905000Y-40640000D03*
X102108000Y-40640000D03*
X116586000Y-98298000D03*
X97409000Y-96774000D03*
X122428000Y-98298000D03*
X131953000Y-98425000D03*
X108204000Y-83947000D03*
X108204000Y-87884000D03*
X121158000Y-87884000D03*
X107188000Y-112522000D03*
X97409000Y-99949000D03*
X97409000Y-112522000D03*
X96266000Y-55118000D03*
X96266000Y-68834000D03*
X77470000Y-38354000D03*
X72390000Y-45339000D03*
X90551000Y-56388000D03*
X130810000Y-99949000D03*
X122428000Y-99441000D03*
X116586000Y-99441000D03*
X98679000Y-96901000D03*
X106299000Y-111379000D03*
X120015000Y-89027000D03*
X106934000Y-89027000D03*
X108204000Y-82677000D03*
X98679000Y-99949000D03*
X98679000Y-111379000D03*
X95123000Y-56388000D03*
X95123000Y-68834000D03*
X97409000Y-61468000D03*
X83312000Y-85598000D03*
X86614000Y-67691000D03*
X89281000Y-56388000D03*
X85852000Y-52705000D03*
X85852000Y-43180000D03*
X86106000Y-117475000D03*
X90043000Y-88646000D03*
X151384000Y-107315000D03*
X146304000Y-97155000D03*
X146304000Y-90805000D03*
X146304000Y-87503000D03*
X123444000Y-66040000D03*
X117602000Y-64770000D03*
X105410000Y-54610000D03*
X106553000Y-53467000D03*
X107950000Y-46228000D03*
X116840000Y-46228000D03*
X127254000Y-63500000D03*
X134620000Y-49022000D03*
X143510000Y-47752000D03*
X152400000Y-46482000D03*
X144907000Y-60579000D03*
X145415000Y-61849000D03*
X146939000Y-63119000D03*
X154178000Y-71120000D03*
X157988000Y-81280000D03*
X157988000Y-91440000D03*
X154051000Y-83820000D03*
X152654000Y-83820000D03*
X154178000Y-120650000D03*
X156210000Y-123825000D03*
X148590000Y-126365000D03*
X139700000Y-126365000D03*
X130810000Y-130048000D03*
X128905000Y-125730000D03*
X128905000Y-124460000D03*
X109855000Y-118110000D03*
X116205000Y-118110000D03*
X131572000Y-116205000D03*
X87503000Y-116205000D03*
X79121000Y-113665000D03*
X77851000Y-111125000D03*
X74295000Y-108585000D03*
X88646000Y-116205000D03*
X88646000Y-120523000D03*
X72390000Y-116459000D03*
X88646000Y-113665000D03*
X84201000Y-96647000D03*
X70612000Y-101727000D03*
X74168000Y-97790000D03*
X85344000Y-97790000D03*
X88773000Y-111125000D03*
X77597000Y-95504000D03*
X86487000Y-97917000D03*
X88011000Y-108585000D03*
X74803000Y-77470000D03*
X74168000Y-67310000D03*
X85471000Y-67691000D03*
X83185000Y-81788000D03*
X74295000Y-57150000D03*
X84328000Y-66548000D03*
X83185000Y-79248000D03*
X74168000Y-52070000D03*
X83185000Y-65405000D03*
X83185000Y-76708000D03*
X123444000Y-64770000D03*
X105664000Y-52324000D03*
X106553000Y-68072000D03*
X106553000Y-62230000D03*
X123444000Y-62230000D03*
X105664000Y-51181000D03*
X107696000Y-59690000D03*
X107696000Y-66929000D03*
X105664000Y-50038000D03*
X123444000Y-59690000D03*
X108839000Y-57150000D03*
X108839000Y-65786000D03*
X123444000Y-57150000D03*
X104775000Y-48895000D03*
X117983000Y-54610000D03*
X120523000Y-63627000D03*
X109982000Y-64643000D03*
X109982000Y-54610000D03*
X126238000Y-93345000D03*
X135255000Y-83566000D03*
X137795000Y-69977000D03*
X135509000Y-95885000D03*
X137795000Y-79502000D03*
X126238000Y-94615000D03*
X140335000Y-69977000D03*
X135509000Y-94615000D03*
X140335000Y-79375000D03*
X126238000Y-95885000D03*
X142875000Y-69977000D03*
X135509000Y-93345000D03*
X142875000Y-79502000D03*
X126238000Y-97155000D03*
X117602000Y-107188000D03*
X122936000Y-108585000D03*
X125603000Y-105918000D03*
X130429000Y-105918000D03*
X148844000Y-104775000D03*
X143764000Y-97155000D03*
X143764000Y-92075000D03*
X145415000Y-69977000D03*
X135509000Y-92075000D03*
X131572000Y-107315000D03*
X113665000Y-105410000D03*
X111125000Y-114300000D03*
X141097000Y-123190000D03*
X131572000Y-109855000D03*
X112395000Y-108712000D03*
X145034000Y-112395000D03*
X112395000Y-114300000D03*
X111125000Y-108712000D03*
X131572000Y-112395000D03*
X145034000Y-114935000D03*
X113665000Y-114300000D03*
X131572000Y-114935000D03*
X109855000Y-108712000D03*
X114935000Y-115443000D03*
X145034000Y-117475000D03*
X114935000Y-114300000D03*
X92583000Y-117475000D03*
X92583000Y-89535000D03*
X75501500Y-114935000D03*
X75501500Y-105664000D03*
X99949000Y-102235000D03*
X99949000Y-99949000D03*
X93726000Y-90043000D03*
X93726000Y-114935000D03*
X76708000Y-112395000D03*
X76708000Y-105664000D03*
X101219000Y-103378000D03*
X101219000Y-99949000D03*
X94869000Y-112395000D03*
X94869000Y-90551000D03*
X77851000Y-109855000D03*
X77851000Y-105664000D03*
X102489000Y-104521000D03*
X102489000Y-99949000D03*
X96012000Y-109855000D03*
X96012000Y-91313000D03*
X101473000Y-76327000D03*
X101473000Y-85471000D03*
X105664000Y-85471000D03*
X105664000Y-90170000D03*
X117729000Y-91313000D03*
X106299000Y-100711000D03*
X103759000Y-105664000D03*
X103759000Y-99949000D03*
X92583000Y-85598000D03*
X92583000Y-76835000D03*
X93726000Y-83058000D03*
X93726000Y-79248000D03*
X94869000Y-77978000D03*
X94869000Y-82677000D03*
D17*
X87122000Y-50038000D02*
X83312000Y-46228000D01*
X91948000Y-62738000D02*
X91948000Y-53975000D01*
X91948000Y-53975000D02*
X92329000Y-53594000D01*
X92329000Y-53594000D02*
X95123000Y-53594000D01*
X95123000Y-53594000D02*
X95123000Y-50292000D01*
X95123000Y-50292000D02*
X94869000Y-50038000D01*
X94869000Y-50038000D02*
X87122000Y-50038000D01*
X77978000Y-46228000D02*
X74930000Y-43180000D01*
X83312000Y-46228000D02*
X77978000Y-46228000D01*
X105029000Y-102743000D02*
X105029000Y-116967000D01*
X116205000Y-114300000D02*
X116205000Y-116967000D01*
X105029000Y-101854000D02*
X105029000Y-102743000D01*
X150114000Y-98425000D02*
X150114000Y-106045000D01*
X145796000Y-98425000D02*
X150114000Y-98425000D01*
X145034000Y-97663000D02*
X145796000Y-98425000D01*
X145034000Y-97155000D02*
X145034000Y-97663000D01*
X135509000Y-90805000D02*
X145034000Y-90805000D01*
X111506000Y-76327000D02*
X111506000Y-90170000D01*
X105029000Y-101981000D02*
X105029000Y-101854000D01*
X105029000Y-101854000D02*
X105029000Y-99949000D01*
X118872000Y-101981000D02*
X105029000Y-101981000D01*
X118872000Y-90170000D02*
X118872000Y-101981000D01*
X83058000Y-118745000D02*
X83058000Y-101092000D01*
X83058000Y-101092000D02*
X83058000Y-86868000D01*
X97409000Y-62738000D02*
X101219000Y-62738000D01*
X101219000Y-61595000D02*
X101219000Y-62738000D01*
X109347000Y-53467000D02*
X101219000Y-61595000D01*
X115316000Y-53467000D02*
X109347000Y-53467000D01*
X117729000Y-55880000D02*
X115316000Y-53467000D01*
X121031000Y-66040000D02*
X119507000Y-66040000D01*
X122428000Y-67437000D02*
X121031000Y-66040000D01*
X123444000Y-67437000D02*
X122428000Y-67437000D01*
X113538000Y-66040000D02*
X114046000Y-66040000D01*
X111506000Y-68072000D02*
X113538000Y-66040000D01*
X111506000Y-76327000D02*
X111506000Y-68072000D01*
X100330000Y-134747000D02*
X100330000Y-121920000D01*
X100330000Y-121920000D02*
X99060000Y-120650000D01*
X143510000Y-54610000D02*
X143510000Y-51054000D01*
X146812000Y-47752000D02*
X146812000Y-40640000D01*
X143510000Y-51054000D02*
X146812000Y-47752000D01*
X80010000Y-48768000D02*
X80010000Y-57150000D01*
X80010000Y-57150000D02*
X81280000Y-58420000D01*
X90170000Y-40640000D02*
X90170000Y-37973000D01*
X74549000Y-46609000D02*
X68961000Y-46609000D01*
X76708000Y-48768000D02*
X74549000Y-46609000D01*
X80010000Y-48768000D02*
X76708000Y-48768000D01*
X82296000Y-48768000D02*
X80010000Y-48768000D01*
X84455000Y-38862000D02*
X84455000Y-40132000D01*
X85344000Y-37973000D02*
X84455000Y-38862000D01*
X90170000Y-37973000D02*
X85344000Y-37973000D01*
X68961000Y-46609000D02*
X68580000Y-46990000D01*
X91313000Y-88646000D02*
X91313000Y-92837000D01*
X96012000Y-83947000D02*
X91313000Y-88646000D01*
X88519000Y-107315000D02*
X87630000Y-106426000D01*
X87630000Y-106426000D02*
X87630000Y-92964000D01*
X102743000Y-77597000D02*
X102743000Y-83947000D01*
X69088000Y-73660000D02*
X68580000Y-73660000D01*
X69342000Y-73406000D02*
X69088000Y-73660000D01*
X80772000Y-73406000D02*
X69342000Y-73406000D01*
X68580000Y-57150000D02*
X68580000Y-53340000D01*
X66040000Y-46990000D02*
X68580000Y-46990000D01*
X66040000Y-50800000D02*
X66040000Y-46990000D01*
X68580000Y-53340000D02*
X66040000Y-50800000D01*
X68580000Y-67310000D02*
X68580000Y-63627000D01*
X66040000Y-57150000D02*
X68580000Y-57150000D01*
X66040000Y-61087000D02*
X66040000Y-57150000D01*
X68580000Y-63627000D02*
X66040000Y-61087000D01*
X68580000Y-77470000D02*
X68580000Y-73660000D01*
X66040000Y-67310000D02*
X68580000Y-67310000D01*
X66040000Y-71120000D02*
X66040000Y-67310000D01*
X68580000Y-73660000D02*
X66040000Y-71120000D01*
X68580000Y-87630000D02*
X68580000Y-83820000D01*
X65913000Y-77470000D02*
X68580000Y-77470000D01*
X65913000Y-81153000D02*
X65913000Y-77470000D01*
X68580000Y-83820000D02*
X65913000Y-81153000D01*
X68580000Y-97790000D02*
X68580000Y-93980000D01*
X66040000Y-87630000D02*
X68580000Y-87630000D01*
X66040000Y-91440000D02*
X66040000Y-87630000D01*
X68580000Y-93980000D02*
X66040000Y-91440000D01*
X68580000Y-107950000D02*
X68580000Y-104140000D01*
X66040000Y-97790000D02*
X68580000Y-97790000D01*
X66040000Y-101600000D02*
X66040000Y-97790000D01*
X68580000Y-104140000D02*
X66040000Y-101600000D01*
X68580000Y-118110000D02*
X68580000Y-114300000D01*
X66040000Y-107950000D02*
X68580000Y-107950000D01*
X66040000Y-111760000D02*
X66040000Y-107950000D01*
X68580000Y-114300000D02*
X66040000Y-111760000D01*
X68580000Y-128270000D02*
X68580000Y-124460000D01*
X65913000Y-118110000D02*
X68580000Y-118110000D01*
X65913000Y-121793000D02*
X65913000Y-118110000D01*
X68580000Y-124460000D02*
X65913000Y-121793000D01*
X77470000Y-132080000D02*
X74168000Y-132080000D01*
X66040000Y-128270000D02*
X68580000Y-128270000D01*
X66040000Y-134747000D02*
X66040000Y-128270000D01*
X71501000Y-134747000D02*
X66040000Y-134747000D01*
X74168000Y-132080000D02*
X71501000Y-134747000D01*
X86360000Y-132080000D02*
X83058000Y-132080000D01*
X77470000Y-134747000D02*
X77470000Y-132080000D01*
X80391000Y-134747000D02*
X77470000Y-134747000D01*
X83058000Y-132080000D02*
X80391000Y-134747000D01*
X95250000Y-132080000D02*
X91948000Y-132080000D01*
X86360000Y-134747000D02*
X86360000Y-132080000D01*
X89281000Y-134747000D02*
X86360000Y-134747000D01*
X91948000Y-132080000D02*
X89281000Y-134747000D01*
X104140000Y-132080000D02*
X103251000Y-132080000D01*
X95250000Y-134747000D02*
X95250000Y-132080000D01*
X100584000Y-134747000D02*
X100330000Y-134747000D01*
X100330000Y-134747000D02*
X95250000Y-134747000D01*
X103251000Y-132080000D02*
X100584000Y-134747000D01*
X113030000Y-132080000D02*
X109855000Y-132080000D01*
X104140000Y-134747000D02*
X104140000Y-132080000D01*
X107188000Y-134747000D02*
X104140000Y-134747000D01*
X109855000Y-132080000D02*
X107188000Y-134747000D01*
X121920000Y-132080000D02*
X118872000Y-132080000D01*
X113030000Y-134747000D02*
X113030000Y-132080000D01*
X116205000Y-134747000D02*
X113030000Y-134747000D01*
X118872000Y-132080000D02*
X116205000Y-134747000D01*
X130810000Y-132080000D02*
X127508000Y-132080000D01*
X121920000Y-134620000D02*
X121920000Y-132080000D01*
X122047000Y-134747000D02*
X121920000Y-134620000D01*
X124841000Y-134747000D02*
X122047000Y-134747000D01*
X127508000Y-132080000D02*
X124841000Y-134747000D01*
X139700000Y-132080000D02*
X136525000Y-132080000D01*
X130810000Y-134747000D02*
X130810000Y-132080000D01*
X133858000Y-134747000D02*
X130810000Y-134747000D01*
X136525000Y-132080000D02*
X133858000Y-134747000D01*
X148590000Y-132080000D02*
X145415000Y-132080000D01*
X139700000Y-134747000D02*
X139700000Y-132080000D01*
X142748000Y-134747000D02*
X139700000Y-134747000D01*
X145415000Y-132080000D02*
X142748000Y-134747000D01*
X160020000Y-130810000D02*
X156210000Y-130810000D01*
X148590000Y-134747000D02*
X148590000Y-132080000D01*
X152273000Y-134747000D02*
X148590000Y-134747000D01*
X156210000Y-130810000D02*
X152273000Y-134747000D01*
X160020000Y-120650000D02*
X160020000Y-124079000D01*
X162687000Y-130810000D02*
X160020000Y-130810000D01*
X162687000Y-126746000D02*
X162687000Y-130810000D01*
X160020000Y-124079000D02*
X162687000Y-126746000D01*
X160020000Y-110490000D02*
X160020000Y-114173000D01*
X162560000Y-120650000D02*
X160020000Y-120650000D01*
X162560000Y-116713000D02*
X162560000Y-120650000D01*
X160020000Y-114173000D02*
X162560000Y-116713000D01*
X160020000Y-101600000D02*
X160020000Y-104902000D01*
X162687000Y-110490000D02*
X160020000Y-110490000D01*
X162687000Y-107569000D02*
X162687000Y-110490000D01*
X160020000Y-104902000D02*
X162687000Y-107569000D01*
X160020000Y-91440000D02*
X160020000Y-94869000D01*
X162687000Y-101600000D02*
X160020000Y-101600000D01*
X162687000Y-97536000D02*
X162687000Y-101600000D01*
X160020000Y-94869000D02*
X162687000Y-97536000D01*
X162687000Y-87630000D02*
X162687000Y-91440000D01*
X160020000Y-84963000D02*
X162687000Y-87630000D01*
X160020000Y-81280000D02*
X160020000Y-84963000D01*
X162687000Y-91440000D02*
X160020000Y-91440000D01*
X160020000Y-71120000D02*
X160020000Y-74549000D01*
X162687000Y-81280000D02*
X160020000Y-81280000D01*
X162687000Y-77216000D02*
X162687000Y-81280000D01*
X160020000Y-74549000D02*
X162687000Y-77216000D01*
X160020000Y-60960000D02*
X160020000Y-64389000D01*
X162687000Y-71120000D02*
X160020000Y-71120000D01*
X162687000Y-67056000D02*
X162687000Y-71120000D01*
X160020000Y-64389000D02*
X162687000Y-67056000D01*
X160020000Y-50800000D02*
X160020000Y-54229000D01*
X162687000Y-60960000D02*
X160020000Y-60960000D01*
X162687000Y-56896000D02*
X162687000Y-60960000D01*
X160020000Y-54229000D02*
X162687000Y-56896000D01*
X161290000Y-40640000D02*
X161290000Y-44323000D01*
X162687000Y-50800000D02*
X160020000Y-50800000D01*
X162687000Y-45720000D02*
X162687000Y-50800000D01*
X161290000Y-44323000D02*
X162687000Y-45720000D01*
X152400000Y-40640000D02*
X155575000Y-40640000D01*
X161290000Y-37973000D02*
X161290000Y-40640000D01*
X158242000Y-37973000D02*
X161290000Y-37973000D01*
X155575000Y-40640000D02*
X158242000Y-37973000D01*
X143510000Y-40640000D02*
X146812000Y-40640000D01*
X152400000Y-37973000D02*
X152400000Y-40640000D01*
X149479000Y-37973000D02*
X152400000Y-37973000D01*
X146812000Y-40640000D02*
X149479000Y-37973000D01*
X143510000Y-40640000D02*
X143510000Y-37973000D01*
X137922000Y-40640000D02*
X140589000Y-37973000D01*
X140589000Y-37973000D02*
X143510000Y-37973000D01*
X137922000Y-40640000D02*
X134620000Y-40640000D01*
X125730000Y-40640000D02*
X128905000Y-40640000D01*
X128905000Y-40640000D02*
X129032000Y-40640000D01*
X129032000Y-40640000D02*
X131699000Y-37973000D01*
X131699000Y-37973000D02*
X134620000Y-37973000D01*
X134620000Y-37973000D02*
X134620000Y-40640000D01*
X116840000Y-40640000D02*
X120142000Y-40640000D01*
X125730000Y-37846000D02*
X125730000Y-40640000D01*
X122936000Y-37846000D02*
X125730000Y-37846000D01*
X120142000Y-40640000D02*
X122936000Y-37846000D01*
X113919000Y-37973000D02*
X116840000Y-37973000D01*
X111252000Y-40640000D02*
X113919000Y-37973000D01*
X107950000Y-40640000D02*
X111252000Y-40640000D01*
X116840000Y-37973000D02*
X116840000Y-40640000D01*
X99060000Y-40640000D02*
X102108000Y-40640000D01*
X107950000Y-37973000D02*
X107950000Y-40640000D01*
X102108000Y-40640000D02*
X104775000Y-37973000D01*
X104775000Y-37973000D02*
X107950000Y-37973000D01*
X90170000Y-40640000D02*
X93472000Y-40640000D01*
X93472000Y-40640000D02*
X96139000Y-37973000D01*
X96139000Y-37973000D02*
X99060000Y-37973000D01*
X99060000Y-37973000D02*
X99060000Y-40640000D01*
D18*
X68580000Y-46990000D02*
X68580000Y-44450000D01*
X72390000Y-40640000D02*
X74930000Y-40640000D01*
X68580000Y-44450000D02*
X72390000Y-40640000D01*
X107950000Y-40640000D02*
X108204000Y-40640000D01*
X134620000Y-40640000D02*
X134620000Y-40386000D01*
X125730000Y-40640000D02*
X125730000Y-40386000D01*
X107950000Y-40640000D02*
X107950000Y-40386000D01*
X99060000Y-40640000D02*
X99060000Y-40386000D01*
D17*
X77470000Y-43180000D02*
X77470000Y-43434000D01*
X77470000Y-43434000D02*
X78994000Y-44958000D01*
X96266000Y-49784000D02*
X96266000Y-55118000D01*
X95250000Y-48768000D02*
X96266000Y-49784000D01*
X87630000Y-48768000D02*
X95250000Y-48768000D01*
X83820000Y-44958000D02*
X87630000Y-48768000D01*
X78994000Y-44958000D02*
X83820000Y-44958000D01*
X77470000Y-43561000D02*
X77470000Y-43180000D01*
X109474000Y-98298000D02*
X116586000Y-98298000D01*
X106807000Y-95631000D02*
X109474000Y-98298000D01*
X98044000Y-95631000D02*
X106807000Y-95631000D01*
X97409000Y-96266000D02*
X98044000Y-95631000D01*
X97409000Y-96774000D02*
X97409000Y-96266000D01*
X122428000Y-98298000D02*
X129794000Y-98298000D01*
X129794000Y-98298000D02*
X129921000Y-98425000D01*
X129921000Y-98425000D02*
X131953000Y-98425000D01*
X107188000Y-112522000D02*
X107696000Y-111760000D01*
X108204000Y-83947000D02*
X108204000Y-87884000D01*
X121158000Y-87884000D02*
X121158000Y-104267000D01*
X121158000Y-104267000D02*
X107696000Y-104267000D01*
X107696000Y-104267000D02*
X107696000Y-111760000D01*
X97409000Y-99949000D02*
X97409000Y-112522000D01*
X96266000Y-55118000D02*
X96266000Y-68834000D01*
X77470000Y-38354000D02*
X77470000Y-40640000D01*
X75057000Y-45339000D02*
X72390000Y-45339000D01*
X77216000Y-47498000D02*
X75057000Y-45339000D01*
X82677000Y-47498000D02*
X77216000Y-47498000D01*
X86614000Y-51435000D02*
X82677000Y-47498000D01*
X90551000Y-51435000D02*
X86614000Y-51435000D01*
X90551000Y-56388000D02*
X90551000Y-51435000D01*
X122936000Y-99949000D02*
X130810000Y-99949000D01*
X122428000Y-99441000D02*
X122936000Y-99949000D01*
X108839000Y-99441000D02*
X116586000Y-99441000D01*
X106172000Y-96774000D02*
X108839000Y-99441000D01*
X98806000Y-96774000D02*
X106172000Y-96774000D01*
X98679000Y-96901000D02*
X98806000Y-96774000D01*
X106299000Y-104013000D02*
X106299000Y-111379000D01*
X107061000Y-103124000D02*
X106299000Y-104013000D01*
X120015000Y-103124000D02*
X107061000Y-103124000D01*
X120015000Y-89027000D02*
X120015000Y-103124000D01*
X106934000Y-83439000D02*
X106934000Y-89027000D01*
X107696000Y-82677000D02*
X106934000Y-83439000D01*
X108204000Y-82677000D02*
X107696000Y-82677000D01*
X98679000Y-99949000D02*
X98679000Y-111379000D01*
X95123000Y-56388000D02*
X95123000Y-68834000D01*
X80010000Y-43180000D02*
X83947000Y-43180000D01*
X83947000Y-43180000D02*
X88265000Y-47498000D01*
X88265000Y-47498000D02*
X95758000Y-47498000D01*
X95758000Y-47498000D02*
X97409000Y-49149000D01*
X97409000Y-49149000D02*
X97409000Y-61468000D01*
X80010000Y-40640000D02*
X83312000Y-40640000D01*
X84455000Y-85598000D02*
X83312000Y-85598000D01*
X86614000Y-83439000D02*
X84455000Y-85598000D01*
X86614000Y-67691000D02*
X86614000Y-83439000D01*
X89281000Y-52705000D02*
X89281000Y-56388000D01*
X85852000Y-52705000D02*
X89281000Y-52705000D01*
X83312000Y-40640000D02*
X85852000Y-43180000D01*
X86106000Y-114935000D02*
X86106000Y-117475000D01*
X90551000Y-114935000D02*
X86106000Y-114935000D01*
X90551000Y-100457000D02*
X90551000Y-114935000D01*
X90043000Y-99949000D02*
X90551000Y-100457000D01*
X90043000Y-88646000D02*
X90043000Y-99949000D01*
X151384000Y-97155000D02*
X151384000Y-107315000D01*
X146304000Y-97155000D02*
X151384000Y-97155000D01*
X146304000Y-87503000D02*
X146304000Y-90805000D01*
X80010000Y-40640000D02*
X80645000Y-40640000D01*
X123444000Y-66040000D02*
X122809000Y-66040000D01*
X122809000Y-66040000D02*
X121539000Y-64770000D01*
X121539000Y-64770000D02*
X117602000Y-64770000D01*
X87630000Y-44450000D02*
X87630000Y-40640000D01*
X96520000Y-44450000D02*
X96520000Y-40640000D01*
X105410000Y-44450000D02*
X105410000Y-40640000D01*
X114300000Y-44450000D02*
X114300000Y-40640000D01*
X123190000Y-44450000D02*
X123190000Y-40640000D01*
X132080000Y-44450000D02*
X132080000Y-40640000D01*
X140970000Y-44450000D02*
X140970000Y-40640000D01*
X149860000Y-44450000D02*
X149860000Y-40640000D01*
X158750000Y-44450000D02*
X158750000Y-40640000D01*
X156210000Y-48260000D02*
X160020000Y-48260000D01*
X156210000Y-58420000D02*
X160020000Y-58420000D01*
X156210000Y-68580000D02*
X160020000Y-68580000D01*
X156210000Y-78740000D02*
X160020000Y-78740000D01*
X156210000Y-88900000D02*
X160020000Y-88900000D01*
X156210000Y-99060000D02*
X160020000Y-99060000D01*
X156210000Y-107950000D02*
X160020000Y-107950000D01*
X156210000Y-118110000D02*
X160020000Y-118110000D01*
X156210000Y-128270000D02*
X160020000Y-128270000D01*
X151130000Y-128270000D02*
X151130000Y-132080000D01*
X142240000Y-128270000D02*
X142240000Y-132080000D01*
X133350000Y-128270000D02*
X133350000Y-132080000D01*
X124460000Y-128270000D02*
X124460000Y-132080000D01*
X115570000Y-128270000D02*
X115570000Y-132080000D01*
X106680000Y-128270000D02*
X106680000Y-132080000D01*
X97790000Y-128270000D02*
X97790000Y-132080000D01*
X88900000Y-128270000D02*
X88900000Y-132080000D01*
X80010000Y-128270000D02*
X80010000Y-132080000D01*
X72390000Y-130810000D02*
X68580000Y-130810000D01*
X72390000Y-120650000D02*
X68580000Y-120650000D01*
X72390000Y-110490000D02*
X68580000Y-110490000D01*
X72390000Y-100330000D02*
X68580000Y-100330000D01*
X72390000Y-90170000D02*
X68580000Y-90170000D01*
X72390000Y-80010000D02*
X68580000Y-80010000D01*
X72390000Y-69850000D02*
X68580000Y-69850000D01*
X72390000Y-59690000D02*
X68580000Y-59690000D01*
X72390000Y-49530000D02*
X68580000Y-49530000D01*
X91948000Y-46228000D02*
X90170000Y-44450000D01*
X96393000Y-46228000D02*
X91948000Y-46228000D01*
X104775000Y-54610000D02*
X96393000Y-46228000D01*
X105410000Y-54610000D02*
X104775000Y-54610000D01*
X99060000Y-47117000D02*
X99060000Y-44450000D01*
X105410000Y-53467000D02*
X99060000Y-47117000D01*
X106553000Y-53467000D02*
X105410000Y-53467000D01*
X107950000Y-46228000D02*
X107950000Y-44450000D01*
X116840000Y-46228000D02*
X116840000Y-44450000D01*
X125730000Y-51435000D02*
X125730000Y-44450000D01*
X127254000Y-52959000D02*
X125730000Y-51435000D01*
X127254000Y-63500000D02*
X127254000Y-52959000D01*
X134620000Y-49022000D02*
X134620000Y-44450000D01*
X143510000Y-47752000D02*
X143510000Y-44450000D01*
X152400000Y-46482000D02*
X152400000Y-44450000D01*
X156210000Y-44450000D02*
X156210000Y-45085000D01*
X156210000Y-45085000D02*
X153162000Y-48133000D01*
X153162000Y-60579000D02*
X144907000Y-60579000D01*
X153162000Y-48133000D02*
X153162000Y-60579000D01*
X156210000Y-44704000D02*
X156210000Y-44450000D01*
X154432000Y-50800000D02*
X156210000Y-50800000D01*
X154432000Y-61849000D02*
X154432000Y-50800000D01*
X145415000Y-61849000D02*
X154432000Y-61849000D01*
X156210000Y-63119000D02*
X156210000Y-60960000D01*
X146939000Y-63119000D02*
X156210000Y-63119000D01*
X154178000Y-71120000D02*
X156210000Y-71120000D01*
X156210000Y-81280000D02*
X157988000Y-81280000D01*
X156210000Y-91440000D02*
X157988000Y-91440000D01*
X156210000Y-101600000D02*
X154051000Y-101600000D01*
X154051000Y-101600000D02*
X154051000Y-83820000D01*
X154178000Y-110490000D02*
X156210000Y-110490000D01*
X154178000Y-107823000D02*
X154178000Y-110490000D01*
X152654000Y-106299000D02*
X154178000Y-107823000D01*
X152654000Y-83820000D02*
X152654000Y-106299000D01*
X154178000Y-120650000D02*
X156210000Y-120650000D01*
X156210000Y-123825000D02*
X156210000Y-125730000D01*
X148590000Y-126365000D02*
X148590000Y-128270000D01*
X139700000Y-126365000D02*
X139700000Y-128270000D01*
X130810000Y-130048000D02*
X130810000Y-128270000D01*
X121920000Y-125730000D02*
X121920000Y-128270000D01*
X128905000Y-125730000D02*
X121920000Y-125730000D01*
X113030000Y-124460000D02*
X113030000Y-128270000D01*
X128905000Y-124460000D02*
X113030000Y-124460000D01*
X106045000Y-126365000D02*
X104140000Y-128270000D01*
X110871000Y-126365000D02*
X106045000Y-126365000D01*
X111760000Y-125476000D02*
X110871000Y-126365000D01*
X111760000Y-123698000D02*
X111760000Y-125476000D01*
X109855000Y-121793000D02*
X111760000Y-123698000D01*
X109855000Y-118110000D02*
X109855000Y-121793000D01*
X119888000Y-118110000D02*
X116205000Y-118110000D01*
X121793000Y-116205000D02*
X119888000Y-118110000D01*
X131572000Y-116205000D02*
X121793000Y-116205000D01*
X93599000Y-126238000D02*
X95250000Y-127889000D01*
X87503000Y-126238000D02*
X93599000Y-126238000D01*
X87503000Y-116205000D02*
X87503000Y-126238000D01*
X95250000Y-127889000D02*
X95250000Y-128270000D01*
X84328000Y-126238000D02*
X86360000Y-128270000D01*
X80137000Y-126238000D02*
X84328000Y-126238000D01*
X79121000Y-125222000D02*
X80137000Y-126238000D01*
X79121000Y-113665000D02*
X79121000Y-125222000D01*
X77470000Y-126746000D02*
X77470000Y-128270000D01*
X77851000Y-126365000D02*
X77470000Y-126746000D01*
X77851000Y-111125000D02*
X77851000Y-126365000D01*
X72390000Y-127381000D02*
X72390000Y-128270000D01*
X74295000Y-125476000D02*
X72390000Y-127381000D01*
X74295000Y-108585000D02*
X74295000Y-125476000D01*
X72390000Y-118110000D02*
X72390000Y-116459000D01*
X88646000Y-120523000D02*
X88646000Y-116205000D01*
X72390000Y-107950000D02*
X72390000Y-103505000D01*
X88138000Y-113665000D02*
X88646000Y-113665000D01*
X84201000Y-109728000D02*
X88138000Y-113665000D01*
X84201000Y-96647000D02*
X84201000Y-109728000D01*
X72390000Y-103505000D02*
X70612000Y-101727000D01*
X74168000Y-97790000D02*
X72390000Y-97790000D01*
X85344000Y-107823000D02*
X85344000Y-97790000D01*
X88773000Y-111125000D02*
X85344000Y-107823000D01*
X74295000Y-89535000D02*
X72390000Y-87630000D01*
X74295000Y-92202000D02*
X74295000Y-89535000D01*
X77597000Y-95504000D02*
X74295000Y-92202000D01*
X86487000Y-107061000D02*
X86487000Y-97917000D01*
X88011000Y-108585000D02*
X86487000Y-107061000D01*
X74803000Y-77470000D02*
X72390000Y-77470000D01*
X85471000Y-79502000D02*
X85471000Y-67691000D01*
X74168000Y-67310000D02*
X72390000Y-67310000D01*
X83185000Y-81788000D02*
X85471000Y-79502000D01*
X74295000Y-57150000D02*
X72390000Y-57150000D01*
X84328000Y-78105000D02*
X84328000Y-66548000D01*
X83185000Y-79248000D02*
X84328000Y-78105000D01*
X83185000Y-76708000D02*
X83185000Y-65405000D01*
X74168000Y-52070000D02*
X72390000Y-52070000D01*
X120015000Y-61341000D02*
X123444000Y-64770000D01*
X120015000Y-54864000D02*
X120015000Y-61341000D01*
X117475000Y-52324000D02*
X120015000Y-54864000D01*
X105664000Y-52324000D02*
X117475000Y-52324000D01*
X106553000Y-62230000D02*
X106553000Y-68072000D01*
X121158000Y-59944000D02*
X123444000Y-62230000D01*
X121158000Y-54229000D02*
X121158000Y-59944000D01*
X118110000Y-51181000D02*
X121158000Y-54229000D01*
X105664000Y-51181000D02*
X118110000Y-51181000D01*
X107696000Y-59690000D02*
X107696000Y-66929000D01*
X105664000Y-50038000D02*
X118745000Y-50038000D01*
X122301000Y-58547000D02*
X123444000Y-59690000D01*
X122301000Y-53594000D02*
X122301000Y-58547000D01*
X118745000Y-50038000D02*
X122301000Y-53594000D01*
X108839000Y-57150000D02*
X108839000Y-65786000D01*
X123444000Y-52959000D02*
X123444000Y-57150000D01*
X119380000Y-48895000D02*
X123444000Y-52959000D01*
X104775000Y-48895000D02*
X119380000Y-48895000D01*
X117983000Y-54610000D02*
X118872000Y-55499000D01*
X118872000Y-55499000D02*
X118872000Y-61976000D01*
X118872000Y-61976000D02*
X120523000Y-63627000D01*
X109982000Y-54610000D02*
X109982000Y-64643000D01*
X126238000Y-85725000D02*
X126238000Y-93345000D01*
X126492000Y-85471000D02*
X126238000Y-85725000D01*
X133350000Y-85471000D02*
X126492000Y-85471000D01*
X135255000Y-83566000D02*
X133350000Y-85471000D01*
X137795000Y-68199000D02*
X137795000Y-69977000D01*
X141605000Y-64389000D02*
X137795000Y-68199000D01*
X149860000Y-64389000D02*
X141605000Y-64389000D01*
X151384000Y-65913000D02*
X149860000Y-64389000D01*
X151384000Y-93853000D02*
X151384000Y-65913000D01*
X149352000Y-95885000D02*
X151384000Y-93853000D01*
X135509000Y-95885000D02*
X149352000Y-95885000D01*
X126365000Y-79502000D02*
X137795000Y-79502000D01*
X124968000Y-80899000D02*
X126365000Y-79502000D01*
X124968000Y-94615000D02*
X124968000Y-80899000D01*
X126238000Y-94615000D02*
X124968000Y-94615000D01*
X140335000Y-68199000D02*
X140335000Y-69977000D01*
X142875000Y-65659000D02*
X140335000Y-68199000D01*
X149352000Y-65659000D02*
X142875000Y-65659000D01*
X150114000Y-66421000D02*
X149352000Y-65659000D01*
X150114000Y-93218000D02*
X150114000Y-66421000D01*
X148717000Y-94615000D02*
X150114000Y-93218000D01*
X135509000Y-94615000D02*
X148717000Y-94615000D01*
X140335000Y-78232000D02*
X140335000Y-79375000D01*
X125857000Y-78232000D02*
X140335000Y-78232000D01*
X123698000Y-80391000D02*
X125857000Y-78232000D01*
X123698000Y-95885000D02*
X123698000Y-80391000D01*
X126238000Y-95885000D02*
X123698000Y-95885000D01*
X142875000Y-68707000D02*
X142875000Y-69977000D01*
X144653000Y-66929000D02*
X142875000Y-68707000D01*
X148844000Y-66929000D02*
X144653000Y-66929000D01*
X148844000Y-92583000D02*
X148844000Y-66929000D01*
X148082000Y-93345000D02*
X148844000Y-92583000D01*
X135509000Y-93345000D02*
X148082000Y-93345000D01*
X142875000Y-76962000D02*
X142875000Y-79502000D01*
X125349000Y-76962000D02*
X142875000Y-76962000D01*
X122428000Y-79883000D02*
X125349000Y-76962000D01*
X122428000Y-97155000D02*
X122428000Y-79883000D01*
X126238000Y-97155000D02*
X122428000Y-97155000D01*
X143383000Y-92075000D02*
X143764000Y-92075000D01*
X117602000Y-107188000D02*
X119761000Y-107188000D01*
X119761000Y-107188000D02*
X121158000Y-108585000D01*
X121158000Y-108585000D02*
X122936000Y-108585000D01*
X125603000Y-105918000D02*
X130429000Y-105918000D01*
X148844000Y-104775000D02*
X148844000Y-99695000D01*
X145161000Y-99695000D02*
X148844000Y-99695000D01*
X143764000Y-98298000D02*
X145161000Y-99695000D01*
X143764000Y-97155000D02*
X143764000Y-98298000D01*
X147574000Y-92075000D02*
X143383000Y-92075000D01*
X147574000Y-69977000D02*
X147574000Y-92075000D01*
X145415000Y-69977000D02*
X147574000Y-69977000D01*
X143383000Y-92075000D02*
X135509000Y-92075000D01*
X122047000Y-107315000D02*
X131572000Y-107315000D01*
X120142000Y-105410000D02*
X122047000Y-107315000D01*
X113665000Y-105410000D02*
X120142000Y-105410000D01*
X111125000Y-121031000D02*
X111125000Y-114300000D01*
X113284000Y-123190000D02*
X111125000Y-121031000D01*
X141097000Y-123190000D02*
X113284000Y-123190000D01*
X120650000Y-109855000D02*
X131572000Y-109855000D01*
X119507000Y-108712000D02*
X120650000Y-109855000D01*
X112395000Y-108712000D02*
X119507000Y-108712000D01*
X147574000Y-112395000D02*
X145034000Y-112395000D01*
X147574000Y-120142000D02*
X147574000Y-112395000D01*
X145796000Y-121920000D02*
X147574000Y-120142000D01*
X113919000Y-121920000D02*
X145796000Y-121920000D01*
X112395000Y-120396000D02*
X113919000Y-121920000D01*
X112395000Y-114300000D02*
X112395000Y-120396000D01*
X111125000Y-109601000D02*
X111125000Y-108712000D01*
X111379000Y-109855000D02*
X111125000Y-109601000D01*
X118745000Y-109855000D02*
X111379000Y-109855000D01*
X121158000Y-112395000D02*
X118745000Y-109855000D01*
X131572000Y-112395000D02*
X121158000Y-112395000D01*
X146304000Y-114935000D02*
X145034000Y-114935000D01*
X146304000Y-119507000D02*
X146304000Y-114935000D01*
X145161000Y-120650000D02*
X146304000Y-119507000D01*
X114554000Y-120650000D02*
X145161000Y-120650000D01*
X113665000Y-119761000D02*
X114554000Y-120650000D01*
X113665000Y-114300000D02*
X113665000Y-119761000D01*
X121793000Y-114935000D02*
X131572000Y-114935000D01*
X117856000Y-110998000D02*
X121793000Y-114935000D01*
X110744000Y-110998000D02*
X117856000Y-110998000D01*
X109855000Y-110109000D02*
X110744000Y-110998000D01*
X109855000Y-108712000D02*
X109855000Y-110109000D01*
X145034000Y-117475000D02*
X145034000Y-119126000D01*
X145034000Y-119126000D02*
X144780000Y-119380000D01*
X144780000Y-119380000D02*
X114935000Y-119380000D01*
X114935000Y-119380000D02*
X114935000Y-115443000D01*
X114935000Y-115443000D02*
X114935000Y-114300000D01*
X92583000Y-89535000D02*
X92583000Y-117475000D01*
X75501500Y-105664000D02*
X75501500Y-114935000D01*
X99949000Y-99949000D02*
X99949000Y-102235000D01*
X93726000Y-90043000D02*
X93726000Y-114935000D01*
X76708000Y-105664000D02*
X76708000Y-112395000D01*
X101219000Y-99949000D02*
X101219000Y-103378000D01*
X94869000Y-90551000D02*
X94869000Y-112395000D01*
X77851000Y-105664000D02*
X77851000Y-109855000D01*
X102489000Y-99949000D02*
X102489000Y-104521000D01*
X96012000Y-91313000D02*
X96012000Y-109855000D01*
X101473000Y-85471000D02*
X101473000Y-76327000D01*
X105664000Y-90170000D02*
X105664000Y-85471000D01*
X117729000Y-100711000D02*
X117729000Y-91313000D01*
X106299000Y-100711000D02*
X117729000Y-100711000D01*
X103759000Y-105664000D02*
X103759000Y-99949000D01*
X92583000Y-76835000D02*
X92583000Y-85598000D01*
X93726000Y-79248000D02*
X93726000Y-83058000D01*
X94869000Y-82677000D02*
X94869000Y-77978000D01*
M02*
